<svg width="538" height="80" viewBox="0 0 538 80" fill="none" xmlns="http://www.w3.org/2000/svg">
<g filter="url(#filter0_d)">
<path d="M73.848 71C73.848 69.1916 73.219 68.2088 71.961 68.0516C71.5679 67.9729 71.1748 67.9336 70.7817 67.9336H66.8897L39.7642 0.23764H34.457L8.15698 67.9336H0.726929V71H21.8377C21.8377 69.1916 21.248 68.2088 20.0686 68.0516C19.6755 67.9729 19.2824 67.9336 18.8893 67.9336H12.8745L21.7198 45.0538H46.1328L54.9781 67.9336H47.0763V71H73.848ZM44.7175 41.6336H23.0171L33.8673 13.4466L44.7175 41.6336ZM117.705 21.7666H124.91V59.2492L92.7454 19.5365H80.3084V21.7666H87.1702V68.7699H80.3084V71H97.8918C97.8918 69.742 97.4343 69.0272 96.5194 68.8557C96.2335 68.7985 95.9476 68.7699 95.6617 68.7699H90.6011V29.8292L124.224 71.4289L128.341 70.5711V21.7666H135.203V19.5365H117.705V21.7666ZM176.027 71C176.027 69.742 175.57 69.0272 174.655 68.8557C174.369 68.7985 174.083 68.7699 173.797 68.7699H167.879V21.7666H172.253C176.999 21.8237 180.144 24.7686 181.688 30.6011L183.318 36.691H185.719L185.376 19.5365H142.576L142.147 36.691H144.549L146.178 30.6011C147.779 24.7686 150.953 21.8237 155.699 21.7666H159.645V68.7699H151.496V71H176.027ZM216.937 71C216.937 69.742 216.48 69.0272 215.565 68.8557C215.279 68.7985 214.993 68.7699 214.707 68.7699H210.075V21.7666H216.937V19.5365H194.979V21.7666H201.841V68.7699H194.979V71H216.937ZM227.227 51.1008H246.354V54.9605H227.227V51.1008ZM280.831 71C280.831 69.742 280.373 69.0272 279.459 68.8557C279.173 68.7985 278.887 68.7699 278.601 68.7699H273.969V45.6971H299.444V68.7699H292.582V71H314.54C314.54 69.742 314.082 69.0272 313.167 68.8557C312.881 68.7985 312.595 68.7699 312.309 68.7699H307.678V21.7666H314.54V19.5365H292.582V21.7666H299.444V43.2097H273.969V21.7666H280.831V19.5365H258.873V21.7666H265.735V68.7699H258.873V71H280.831ZM364.885 35.1471L364.456 19.5365H324.228V21.7666H331.09V68.7699H324.228V71H364.456L364.885 55.3894H362.998L361.625 59.7638C360.139 64.6814 357.851 67.5691 354.763 68.4268C353.963 68.6556 353.134 68.7699 352.276 68.7699H339.324V45.6971H356.822V43.2097H339.324V21.7666H352.276C356.679 21.7666 359.767 24.6542 361.54 30.4296C361.597 30.5439 361.625 30.6583 361.625 30.7727L362.998 35.1471H364.885ZM397.646 71V68.7699H390.784V47.4125H398.161L411.713 71H425.094C425.094 69.6848 424.722 68.97 423.978 68.8557C423.693 68.7985 423.378 68.7699 423.035 68.7699H420.204L406.481 46.6406C411.97 45.2111 415.687 42.3234 417.631 37.9776C418.317 36.3193 418.661 34.6324 418.661 32.917C418.661 28.6284 416.802 25.1975 413.085 22.6243C409.998 20.5657 406.224 19.5365 401.763 19.5365H375.689V21.7666H382.55V68.7699H375.689V71H397.646ZM398.676 21.7666C403.479 21.7666 406.795 23.7965 408.625 27.8564C409.311 29.5147 409.654 31.2587 409.654 33.0885C409.654 37.32 408.225 40.5507 405.366 42.7808C403.593 44.2104 401.477 44.9251 399.019 44.9251H390.784V21.7666H398.676ZM459.056 18.6787C452.08 18.6787 446.076 20.966 441.044 25.5405C435.669 30.5725 432.981 37.0341 432.981 44.9251C432.981 54.0742 436.155 61.1933 442.502 66.2825C447.248 69.9993 452.68 71.8577 458.799 71.8577C465.718 71.8577 471.665 69.5419 476.639 64.9101C482.014 59.821 484.702 53.2737 484.702 45.2682C484.702 35.8333 481.414 28.6569 474.838 23.7393C470.264 20.3656 465.003 18.6787 459.056 18.6787ZM459.056 69.4561C448.763 69.4561 443.274 62.4227 442.588 48.356C442.531 47.3268 442.502 46.2975 442.502 45.2682C442.502 30.4582 447.105 22.4527 456.311 21.2519C457.169 21.1376 457.998 21.0804 458.799 21.0804C469.606 21.1947 475.038 29.143 475.096 44.9251C475.096 58.9347 471.064 66.9687 463.002 69.0272C461.744 69.3131 460.428 69.4561 459.056 69.4561ZM466.861 10.3588C467.662 9.61544 468.091 8.72912 468.148 7.69985C468.148 6.21313 467.405 5.01231 465.918 4.0974C465.232 3.75431 464.603 3.58277 464.031 3.58277C463.116 3.63995 462.258 4.01163 461.458 4.69781C460.943 5.15527 459.571 7.07085 457.341 10.4446C455.511 13.0749 453.795 15.2192 452.194 16.8775L453.567 18.4214C454.996 17.3922 458.17 15.5337 463.087 12.8462C464.917 11.8169 466.175 10.9878 466.861 10.3588ZM527.027 71C527.027 69.2703 526.398 68.2874 525.14 68.0516C524.747 67.9729 524.354 67.9336 523.961 67.9336H517.592V3.30401H527.027V0.23764H496.835V3.30401H506.27V67.9336H496.835V71H527.027Z" fill="white"/>
</g>
<defs>
<filter id="filter0_d" x="0.727051" y="0.23764" width="536.532" height="79.061" filterUnits="userSpaceOnUse" color-interpolation-filters="sRGB">
<feFlood flood-opacity="0" result="BackgroundImageFix"/>
<feColorMatrix in="SourceAlpha" type="matrix" values="0 0 0 0 0 0 0 0 0 0 0 0 0 0 0 0 0 0 127 0" result="hardAlpha"/>
<feOffset dx="6.5108" dy="3.72046"/>
<feGaussianBlur stdDeviation="1.86023"/>
<feColorMatrix type="matrix" values="0 0 0 0 0 0 0 0 0 0 0 0 0 0 0 0 0 0 0.25 0"/>
<feBlend mode="normal" in2="BackgroundImageFix" result="effect1_dropShadow"/>
<feBlend mode="normal" in="SourceGraphic" in2="effect1_dropShadow" result="shape"/>
</filter>
</defs>
</svg>
