<svg width="22" height="12" viewBox="0 0 22 12" fill="none" xmlns="http://www.w3.org/2000/svg">
<path d="M4.56445 2.46875H5.69531V8.50977C5.69531 9.32617 5.44922 9.96484 4.95703 10.4258C4.46875 10.8867 3.81641 11.1172 3 11.1172C2.15234 11.1172 1.49219 10.9004 1.01953 10.4668C0.546875 10.0332 0.310547 9.42578 0.310547 8.64453H1.43555C1.43555 9.13281 1.56836 9.51367 1.83398 9.78711C2.10352 10.0605 2.49219 10.1973 3 10.1973C3.46484 10.1973 3.83984 10.0508 4.125 9.75781C4.41406 9.46484 4.56055 9.05469 4.56445 8.52734V2.46875ZM12.1934 8.77344H8.61914L7.81641 11H6.65625L9.91406 2.46875H10.8984L14.1621 11H13.0078L12.1934 8.77344ZM8.95898 7.84766H11.8594L10.4062 3.85742L8.95898 7.84766ZM12.5098 0.371094C12.5098 0.792969 12.3887 1.13477 12.1465 1.39648C11.9082 1.6582 11.6094 1.78906 11.25 1.78906C11.0898 1.78906 10.9512 1.76953 10.834 1.73047C10.7168 1.69141 10.5625 1.61133 10.3711 1.49023C10.1836 1.36914 10.0469 1.29688 9.96094 1.27344C9.87891 1.24609 9.7832 1.23242 9.67383 1.23242C9.51367 1.23242 9.37695 1.29492 9.26367 1.41992C9.15039 1.54102 9.09375 1.69727 9.09375 1.88867L8.36719 1.84766C8.36719 1.42969 8.48438 1.08398 8.71875 0.810547C8.95703 0.537109 9.25781 0.400391 9.62109 0.400391C9.75781 0.400391 9.88086 0.419922 9.99023 0.458984C10.0996 0.498047 10.248 0.574219 10.4355 0.6875C10.623 0.800781 10.7656 0.875 10.8633 0.910156C10.9648 0.945312 11.0762 0.962891 11.1973 0.962891C11.3652 0.962891 11.5039 0.896484 11.6133 0.763672C11.7266 0.630859 11.7832 0.476562 11.7832 0.300781L12.5098 0.371094ZM21.8027 7.00977C21.8027 7.8457 21.6621 8.57617 21.3809 9.20117C21.0996 9.82227 20.7012 10.2969 20.1855 10.625C19.6699 10.9531 19.0684 11.1172 18.3809 11.1172C17.709 11.1172 17.1133 10.9531 16.5938 10.625C16.0742 10.293 15.6699 9.82227 15.3809 9.21289C15.0957 8.59961 14.9492 7.89062 14.9414 7.08594V6.4707C14.9414 5.65039 15.084 4.92578 15.3691 4.29688C15.6543 3.66797 16.0566 3.1875 16.5762 2.85547C17.0996 2.51953 17.6973 2.35156 18.3691 2.35156C19.0527 2.35156 19.6543 2.51758 20.1738 2.84961C20.6973 3.17773 21.0996 3.65625 21.3809 4.28516C21.6621 4.91016 21.8027 5.63867 21.8027 6.4707V7.00977ZM20.6836 6.45898C20.6836 5.44727 20.4805 4.67188 20.0742 4.13281C19.668 3.58984 19.0996 3.31836 18.3691 3.31836C17.6582 3.31836 17.0977 3.58984 16.6875 4.13281C16.2812 4.67188 16.0723 5.42188 16.0605 6.38281V7.00977C16.0605 7.99023 16.2656 8.76172 16.6758 9.32422C17.0898 9.88281 17.6582 10.1621 18.3809 10.1621C19.1074 10.1621 19.6699 9.89844 20.0684 9.37109C20.4668 8.83984 20.6719 8.08008 20.6836 7.0918V6.45898Z" fill="black"/>
</svg>
