<svg width="259" height="108" viewBox="0 0 259 108" fill="none" xmlns="http://www.w3.org/2000/svg">
<g filter="url(#filter0_d)">
<path d="M41.1655 45.4928C39.8156 45.4928 38.4656 46.1065 37.6065 47.0882L9.87119 81.8188V5.23976C9.87119 2.78531 7.90762 0.821745 5.45316 0.821745C2.99871 0.821745 0.91242 2.78531 0.91242 5.23976V94.582C0.91242 97.0364 2.99871 98.8773 5.45316 99C6.80311 99 8.03034 98.3864 8.8894 97.2819L44.6017 52.7335C45.2154 51.8744 45.5835 50.8927 45.5835 49.9109C45.5835 47.4564 43.62 45.4928 41.1655 45.4928ZM60.2153 49.9109L73.224 17.2666L86.2326 49.9109L73.224 82.5551L60.2153 49.9109ZM95.5595 49.9109C95.5595 49.2973 95.4368 48.8064 95.1913 48.1927L77.3965 3.64437C76.6602 1.92625 75.0648 0.821745 73.224 0.821745C71.3831 0.821745 69.7877 1.92625 69.0514 3.64437L51.2566 48.1927C51.0111 48.8064 50.8884 49.2973 50.8884 49.9109C50.8884 50.5245 51.0111 51.0154 51.2566 51.629L69.1741 96.1774C69.7877 97.8955 71.5058 99 73.3467 99C75.0648 99 76.7829 97.8955 77.3965 96.1774L95.1913 51.5063C95.4368 51.0154 95.5595 50.5245 95.5595 49.9109ZM135.643 72.4919L113.062 86.605V58.3787L135.643 72.4919ZM135.766 28.1889L113.062 42.4248V13.3395L135.766 28.1889ZM148.406 72.4919C148.406 70.8965 147.67 69.5465 146.32 68.6875L116.989 50.4018L146.32 31.9933C147.67 31.1343 148.406 29.7843 148.406 28.1889C148.406 26.7163 147.547 25.2436 146.32 24.5072L110.976 1.55808C110.362 1.06719 109.503 0.821745 108.644 0.821745C106.189 0.821745 104.226 2.78531 104.226 5.23976V50.4018C104.226 65.1285 103.858 79.8552 104.226 94.582C104.226 96.9137 106.189 99.1227 108.644 99C109.503 98.8773 110.239 98.7546 110.976 98.3864L146.32 76.1736C147.547 75.4372 148.406 73.9645 148.406 72.4919ZM159.328 49.9109L172.337 17.2666L185.346 49.9109L172.337 82.5551L159.328 49.9109ZM194.673 49.9109C194.673 49.2973 194.55 48.8064 194.304 48.1927L176.51 3.64437C175.773 1.92625 174.178 0.821745 172.337 0.821745C170.496 0.821745 168.901 1.92625 168.164 3.64437L150.37 48.1927C150.124 48.8064 150.001 49.2973 150.001 49.9109C150.001 50.5245 150.124 51.0154 150.37 51.629L168.287 96.1774C168.901 97.8955 170.619 99 172.46 99C174.178 99 175.896 97.8955 176.51 96.1774L194.304 51.5063C194.55 51.0154 194.673 50.5245 194.673 49.9109ZM247.519 50.1563C247.519 47.7019 245.556 45.7383 243.101 45.7383H216.716L246.537 8.06239C247.151 7.20333 247.519 6.22155 247.519 5.23976C247.519 2.78531 245.556 0.821745 243.101 0.821745C241.751 0.821745 240.401 1.43536 239.665 2.53986L204.075 47.3337C203.462 48.1927 203.093 49.1745 203.093 50.1563C203.093 52.8562 205.302 54.5743 207.88 54.5743H233.897L204.075 91.7594C203.462 92.6184 203.093 93.6002 203.093 94.582C203.093 97.0364 205.18 99 207.511 99C208.861 99 210.211 98.3864 211.07 97.2819L246.537 52.9789C247.151 52.1199 247.519 51.1381 247.519 50.1563Z" fill="white"/>
</g>
<defs>
<filter id="filter0_d" x="0.912476" y="0.821747" width="257.607" height="106.183" filterUnits="userSpaceOnUse" color-interpolation-filters="sRGB">
<feFlood flood-opacity="0" result="BackgroundImageFix"/>
<feColorMatrix in="SourceAlpha" type="matrix" values="0 0 0 0 0 0 0 0 0 0 0 0 0 0 0 0 0 0 127 0" result="hardAlpha"/>
<feOffset dx="7" dy="4"/>
<feGaussianBlur stdDeviation="2"/>
<feColorMatrix type="matrix" values="0 0 0 0 0 0 0 0 0 0 0 0 0 0 0 0 0 0 0.25 0"/>
<feBlend mode="normal" in2="BackgroundImageFix" result="effect1_dropShadow"/>
<feBlend mode="normal" in="SourceGraphic" in2="effect1_dropShadow" result="shape"/>
</filter>
</defs>
</svg>
