<svg width="572" height="54" viewBox="0 0 572 54" fill="none" xmlns="http://www.w3.org/2000/svg">
<g filter="url(#filter0_d)">
<path d="M12.7261 25.1702C12.7261 26.2071 12.657 27.7625 12.5187 29.8364C12.4496 30.8503 12.415 31.8758 12.415 32.9127C12.415 33.6962 12.4496 35.3899 12.5187 37.9938C12.6109 40.5746 12.7722 42.1877 13.0026 42.8329C13.2561 43.4781 13.7861 44.1003 14.5926 44.6994C15.4222 45.2985 16.3094 45.6211 17.2541 45.6672C18.3141 45.7363 18.8441 45.9783 18.8441 46.3931C18.8441 46.7157 18.6828 46.9115 18.3602 46.9807C18.0376 47.0268 16.8163 47.0498 14.6963 47.0498L5.19095 47.0152C2.51793 47.0152 1.08924 46.9807 0.904892 46.9115C0.743589 46.8194 0.662937 46.6581 0.662937 46.4276C0.662937 46.0589 1.10076 45.7824 1.97641 45.5981C3.52031 45.2524 4.59183 44.7109 5.19095 43.9735C5.81312 43.2361 6.19334 41.6577 6.3316 39.2381C6.46986 36.7955 6.53899 33.9842 6.53899 30.8043L6.43529 21.5754L6.53899 11.6207C6.53899 8.09504 6.29703 5.84831 5.81312 4.88049C5.32921 3.88963 4.38444 3.26746 2.97879 3.01398C1.45793 2.73746 0.697502 2.40333 0.697502 2.0116C0.697502 1.61986 1.04315 1.42399 1.73445 1.42399L8.57832 1.45856L19.57 1.38943C26.8056 1.38943 31.6678 2.51855 34.1564 4.7768C36.6682 7.03505 37.924 9.85785 37.924 13.2452C37.924 17.2778 36.2879 20.308 33.0158 22.3358C29.7436 24.3636 24.8239 25.3775 18.2565 25.3775C16.6665 25.3775 14.8231 25.3084 12.7261 25.1702ZM12.7261 23.7876C16.1135 23.9028 18.0376 23.9604 18.4985 23.9604C20.8489 23.9604 23.0611 23.5571 25.135 22.7506C27.2089 21.9441 28.7182 20.4924 29.663 18.3954C30.6308 16.2985 31.1147 14.2246 31.1147 12.1737C31.1147 9.56981 30.2275 7.36917 28.4532 5.57179C26.7019 3.75137 23.5335 2.84116 18.9478 2.84116C16.5744 2.84116 14.5005 3.09463 12.7261 3.60159C12.7031 4.43115 12.6916 4.94962 12.6916 5.15701L12.8298 13.107L12.6916 21.5754C12.6916 21.9902 12.7031 22.7276 12.7261 23.7876ZM55.8259 25.2047C57.2777 22.6239 58.8216 20.6882 60.4576 19.3978C62.1168 18.1074 63.8565 17.4622 65.677 17.4622C66.9443 17.4622 68.0389 17.923 68.9606 18.8448C69.8824 19.7434 70.3432 20.7689 70.3432 21.921C70.3432 24.1102 69.41 25.2047 67.5435 25.2047C66.6678 25.2047 65.9304 24.5941 65.3313 23.3728C64.5939 21.8289 63.6146 21.0569 62.3933 21.0569C61.2411 21.0569 60.0544 21.7021 58.8331 22.9926C57.6118 24.283 56.7937 25.7002 56.379 27.2441C55.9642 28.7649 55.7568 31.9679 55.7568 36.8531C55.7568 41.3235 55.9411 43.8929 56.3098 44.5611C56.6785 45.2063 57.6233 45.6211 59.1442 45.8055C59.5589 45.8516 59.7663 46.0129 59.7663 46.2894C59.7663 46.7733 59.2248 47.0152 58.1418 47.0152H47.1155C46.3321 47.0152 45.9403 46.8194 45.9403 46.4276C45.9403 46.0589 46.4588 45.8516 47.4958 45.8055C48.9475 45.7133 49.8462 45.2639 50.1918 44.4574C50.5375 43.6509 50.7103 40.6783 50.7103 35.5397C50.7103 28.0045 50.549 23.4765 50.2264 21.9556C49.9268 20.4347 48.7747 19.6282 46.7699 19.5361C45.9403 19.49 45.5256 19.2711 45.5256 18.8793C45.5256 18.6719 45.6062 18.5222 45.7675 18.43C45.9519 18.3148 47.0118 18.1995 48.9475 18.0843L55.3075 17.7387C55.4688 18.983 55.6416 21.4717 55.8259 25.2047ZM82.8876 0.456172C83.7632 0.456172 84.5467 0.778779 85.238 1.42399C85.9293 2.06921 86.2749 2.77203 86.2749 3.53246C86.2749 4.43115 85.9869 5.2031 85.4108 5.84831C84.8578 6.49353 84.0858 6.81613 83.095 6.81613C82.2193 6.81613 81.4358 6.53961 80.7445 5.98657C80.0532 5.41049 79.7076 4.63854 79.7076 3.67072C79.7076 2.72594 79.9956 1.95399 80.5717 1.35486C81.1708 0.755736 81.9428 0.456172 82.8876 0.456172ZM86.7243 17.3585L86.6897 25.1356L86.7588 32.3942V37.8555L86.7243 42.0033C86.7243 43.6624 86.9893 44.7224 87.5193 45.1833C88.0723 45.6211 88.8904 45.8631 89.9734 45.9092C91.2408 45.9783 91.8745 46.2433 91.8745 46.7042C91.8745 47.0728 91.6325 47.2572 91.1486 47.2572C90.9643 47.2572 90.7569 47.2457 90.5264 47.2226C88.3834 46.9461 86.3902 46.8078 84.5467 46.8078C81.5971 46.8078 79.5578 46.9 78.4287 47.0844C78.1982 47.1305 77.9678 47.1535 77.7374 47.1535C77.1843 47.1535 76.9078 46.9461 76.9078 46.5313C76.9078 46.1165 77.553 45.8285 78.8435 45.6672C80.1339 45.5059 80.9519 45.2294 81.2976 44.8376C81.6663 44.4229 81.8506 43.2707 81.8506 41.3811L82.058 27.0712C82.058 23.246 81.77 20.9878 81.1939 20.2965C80.6178 19.5821 79.5002 19.2019 77.8411 19.1558C77.288 19.1558 77.0115 18.9715 77.0115 18.6028C77.0115 18.3954 77.1037 18.2341 77.288 18.1189C77.4724 18.0037 78.8435 17.8539 81.4013 17.6695C83.9591 17.4852 85.7334 17.3815 86.7243 17.3585ZM107.737 17.3585C108.014 18.2341 108.152 19.0406 108.152 19.778C108.129 20.861 108.094 21.9556 108.048 23.0617C109.753 21.1491 111.482 19.7204 113.233 18.7756C114.984 17.8309 116.759 17.3585 118.556 17.3585C120.192 17.3585 121.713 17.7502 123.118 18.5337C124.524 19.3171 125.803 20.4924 126.955 22.0593C128.591 20.4693 130.239 19.2826 131.898 18.4991C133.58 17.7156 135.262 17.3239 136.944 17.3239C139.18 17.3239 141.035 17.7848 142.509 18.7065C144.007 19.6282 144.941 20.6537 145.309 21.7828C145.678 22.8889 145.862 24.9167 145.862 27.8662L145.689 40.8627C145.689 42.7522 145.874 44.0426 146.242 44.7339C146.634 45.4022 147.418 45.7363 148.593 45.7363C149.376 45.7363 149.768 45.9437 149.768 46.3585C149.768 46.7963 149.134 47.0152 147.867 47.0152H137.256C136.219 47.0152 135.7 46.8078 135.7 46.3931C135.7 46.0244 136 45.817 136.599 45.7709C138.488 45.6787 139.664 45.2524 140.124 44.492C140.585 43.7085 140.816 39.5492 140.816 32.014C140.816 28.4884 140.677 25.9536 140.401 24.4097C140.147 22.8428 139.525 21.5639 138.534 20.573C137.544 19.5821 136.322 19.0867 134.871 19.0867C133.603 19.0867 132.37 19.4784 131.172 20.2619C129.974 21.0224 128.81 22.186 127.681 23.753C126.759 26.7717 126.298 32.0832 126.298 39.6875C126.298 42.3605 126.506 44.0542 126.921 44.7685C127.358 45.4598 128.303 45.8055 129.755 45.8055H130.343C131.08 45.8055 131.449 46.0013 131.449 46.3931C131.449 46.8078 130.988 47.0152 130.066 47.0152H118.418C117.242 47.0152 116.655 46.7963 116.655 46.3585C116.655 45.9207 116.989 45.7018 117.657 45.7018C119.063 45.7018 120.008 45.4137 120.492 44.8376C120.998 44.2385 121.333 42.5448 121.494 39.7566C121.678 36.9683 121.77 34.2147 121.77 31.4956C121.77 26.5873 121.287 23.3613 120.319 21.8173C119.374 20.2734 117.991 19.5015 116.171 19.5015C114.604 19.5015 113.049 20.1237 111.505 21.368C109.984 22.6123 108.958 24.2945 108.428 26.4145C107.898 28.5345 107.633 32.2675 107.633 37.6136C107.633 41.3927 107.818 43.7085 108.186 44.5611C108.555 45.3907 109.465 45.8055 110.917 45.8055C111.493 45.8055 111.839 45.84 111.954 45.9092C112.092 45.9783 112.161 46.1626 112.161 46.4622C112.161 46.8309 111.712 47.0152 110.813 47.0152H100.098C98.8308 47.0152 98.1971 46.7963 98.1971 46.3585C98.1971 45.9668 98.4275 45.7594 98.8884 45.7363C100.133 45.6902 100.974 45.4598 101.412 45.045C101.873 44.6072 102.207 43.3513 102.414 41.2774C102.621 39.1805 102.725 35.7816 102.725 31.0808C102.725 26.3799 102.691 23.5341 102.621 22.5432C102.575 21.5523 102.241 20.7574 101.619 20.1582C100.997 19.5591 99.9369 19.248 98.439 19.225C97.8399 19.2019 97.5404 18.9945 97.5404 18.6028C97.5404 18.3493 97.621 18.1765 97.7823 18.0843C97.9436 17.9691 98.9806 17.8193 100.893 17.635C102.829 17.4276 104.534 17.3239 106.009 17.3239C106.377 17.3239 106.954 17.3354 107.737 17.3585ZM162.243 30.9079C162.151 32.0832 162.105 33.0164 162.105 33.7077C162.105 36.9799 163.061 39.7451 164.974 42.0033C166.91 44.2616 169.295 45.3907 172.129 45.3907C174.894 45.3907 177.463 44.2846 179.837 42.0724C180.528 41.4503 180.966 41.1392 181.15 41.1392C181.519 41.1392 181.715 41.4388 181.738 42.0379C180.862 43.6509 179.364 45.0105 177.245 46.1165C175.125 47.2226 172.763 47.7757 170.159 47.7757C166.333 47.7757 163.096 46.4046 160.446 43.6624C157.796 40.8972 156.471 37.4062 156.471 33.1892C156.471 28.6727 157.923 24.9052 160.826 21.8865C163.753 18.8678 166.875 17.3585 170.193 17.3585C173.304 17.3585 176.115 18.5452 178.627 20.9187C181.139 23.2691 182.395 26.0343 182.395 29.2143C182.395 29.6982 182.314 30.0553 182.153 30.2858C182.014 30.5162 181.139 30.6314 179.526 30.6314L162.243 30.9079ZM162.243 29.1106C165.239 29.2488 168.142 29.318 170.954 29.318L172.786 29.2143C174.168 29.1682 175.228 28.9032 175.966 28.4193C176.703 27.9123 177.072 27.0367 177.072 25.7923C177.072 23.8567 176.403 22.1745 175.067 20.7458C173.753 19.2941 172.198 18.5682 170.401 18.5682C168.742 18.5682 167.082 19.3978 165.423 21.0569C163.787 22.693 162.727 25.3775 162.243 29.1106ZM195.423 0.456172C196.299 0.456172 197.082 0.778779 197.773 1.42399C198.465 2.06921 198.81 2.77203 198.81 3.53246C198.81 4.43115 198.522 5.2031 197.946 5.84831C197.393 6.49353 196.621 6.81613 195.63 6.81613C194.755 6.81613 193.971 6.53961 193.28 5.98657C192.589 5.41049 192.243 4.63854 192.243 3.67072C192.243 2.72594 192.531 1.95399 193.107 1.35486C193.706 0.755736 194.478 0.456172 195.423 0.456172ZM199.26 17.3585L199.225 25.1356L199.294 32.3942V37.8555L199.26 42.0033C199.26 43.6624 199.525 44.7224 200.055 45.1833C200.608 45.6211 201.426 45.8631 202.509 45.9092C203.776 45.9783 204.41 46.2433 204.41 46.7042C204.41 47.0728 204.168 47.2572 203.684 47.2572C203.5 47.2572 203.292 47.2457 203.062 47.2226C200.919 46.9461 198.926 46.8078 197.082 46.8078C194.133 46.8078 192.093 46.9 190.964 47.0844C190.734 47.1305 190.503 47.1535 190.273 47.1535C189.72 47.1535 189.443 46.9461 189.443 46.5313C189.443 46.1165 190.088 45.8285 191.379 45.6672C192.669 45.5059 193.487 45.2294 193.833 44.8376C194.202 44.4229 194.386 43.2707 194.386 41.3811L194.593 27.0712C194.593 23.246 194.305 20.9878 193.729 20.2965C193.153 19.5821 192.036 19.2019 190.376 19.1558C189.823 19.1558 189.547 18.9715 189.547 18.6028C189.547 18.3954 189.639 18.2341 189.823 18.1189C190.008 18.0037 191.379 17.8539 193.937 17.6695C196.494 17.4852 198.269 17.3815 199.26 17.3585ZM220.549 25.2047C222.001 22.6239 223.545 20.6882 225.181 19.3978C226.84 18.1074 228.58 17.4622 230.4 17.4622C231.667 17.4622 232.762 17.923 233.684 18.8448C234.605 19.7434 235.066 20.7689 235.066 21.921C235.066 24.1102 234.133 25.2047 232.266 25.2047C231.391 25.2047 230.653 24.5941 230.054 23.3728C229.317 21.8289 228.338 21.0569 227.116 21.0569C225.964 21.0569 224.777 21.7021 223.556 22.9926C222.335 24.283 221.517 25.7002 221.102 27.2441C220.687 28.7649 220.48 31.9679 220.48 36.8531C220.48 41.3235 220.664 43.8929 221.033 44.5611C221.402 45.2063 222.346 45.6211 223.867 45.8055C224.282 45.8516 224.489 46.0129 224.489 46.2894C224.489 46.7733 223.948 47.0152 222.865 47.0152H211.839C211.055 47.0152 210.663 46.8194 210.663 46.4276C210.663 46.0589 211.182 45.8516 212.219 45.8055C213.671 45.7133 214.569 45.2639 214.915 44.4574C215.26 43.6509 215.433 40.6783 215.433 35.5397C215.433 28.0045 215.272 23.4765 214.949 21.9556C214.65 20.4347 213.498 19.6282 211.493 19.5361C210.663 19.49 210.249 19.2711 210.249 18.8793C210.249 18.6719 210.329 18.5222 210.491 18.43C210.675 18.3148 211.735 18.1995 213.671 18.0843L220.03 17.7387C220.192 18.983 220.365 21.4717 220.549 25.2047ZM241.735 32.6016C241.735 28.546 243.198 24.9743 246.124 21.8865C249.051 18.7987 252.646 17.2548 256.909 17.2548C260.918 17.2548 264.363 18.6374 267.243 21.4026C270.147 24.1678 271.599 27.6243 271.599 31.7721C271.599 35.966 270.078 39.6529 267.036 42.8329C263.994 45.9898 260.446 47.5683 256.39 47.5683C252.381 47.5683 248.936 46.1165 246.055 43.2131C243.175 40.2866 241.735 36.7494 241.735 32.6016ZM247.334 32.3942C247.334 36.3577 248.244 39.6529 250.065 42.2798C251.908 44.9068 254.178 46.2202 256.874 46.2202C259.34 46.2202 261.506 44.9874 263.372 42.5218C265.262 40.0562 266.207 36.784 266.207 32.7053C266.207 29.0645 265.296 25.8269 263.476 22.9926C261.679 20.1352 259.34 18.7065 256.459 18.7065C253.786 18.7065 251.597 20.0084 249.892 22.6123C248.187 25.1932 247.334 28.4538 247.334 32.3942ZM320.157 0.905517H321.747C324.328 6.18244 327.888 15.2039 332.428 27.9699C335.354 36.1503 337.359 41.1738 338.442 43.0403C339.525 44.8837 341.265 45.9092 343.661 46.1165C344.422 46.1857 344.802 46.4392 344.802 46.877C344.802 47.1996 344.606 47.3609 344.214 47.3609L343.73 47.3263C341.61 47.142 338.914 47.0498 335.642 47.0498C330.619 47.0498 327.393 47.1305 325.964 47.2918C325.25 47.2918 324.892 47.0844 324.892 46.6696C324.892 46.37 325.157 46.1857 325.687 46.1165C327.646 45.9322 328.994 45.5981 329.731 45.1142C330.492 44.6303 330.872 43.8698 330.872 42.8329C330.872 41.842 330.169 39.3649 328.764 35.4014L326.724 29.4562C325.526 29.4562 320.169 29.5253 310.652 29.6636C308.255 36.0466 307.057 40.0677 307.057 41.7268C307.057 43.1324 307.644 44.1809 308.82 44.8722C310.018 45.5405 311.193 45.9092 312.345 45.9783C313.198 46.0474 313.624 46.3124 313.624 46.7733C313.624 46.9576 313.486 47.1305 313.209 47.2918C309.522 47.1305 307.299 47.0498 306.538 47.0498C302.667 47.0498 300.063 47.0959 298.727 47.1881C297.989 47.1881 297.621 46.9807 297.621 46.5659C297.621 46.1972 297.943 45.9668 298.588 45.8746C301.238 45.5289 303.266 43.7316 304.672 40.4825C306.078 37.2333 308.267 31.3919 311.239 22.958C313.958 15.2846 316.931 7.93374 320.157 0.905517ZM318.774 8.44069C316.631 12.8189 314.131 19.1789 311.274 27.5206C313.647 27.4054 315.352 27.3477 316.389 27.3477L326.102 27.5206C325.25 25.1241 324.051 21.9441 322.507 17.9806C320.618 13.2567 319.374 10.0768 318.774 8.44069ZM351.194 33.1201C351.194 28.9032 352.542 25.2162 355.238 22.0593C357.957 18.9024 361.264 17.3239 365.158 17.3239C367.67 17.3239 370.078 17.9461 372.382 19.1904C374.686 20.4117 375.838 21.9441 375.838 23.7876C375.838 24.5019 375.62 25.1356 375.182 25.6886C374.744 26.2186 374.237 26.4836 373.661 26.4836C372.37 26.4836 371.38 25.4467 370.688 23.3728C369.628 20.1928 367.773 18.6028 365.123 18.6028C362.496 18.6028 360.492 19.7434 359.109 22.0247C357.749 24.283 357.07 27.2556 357.07 30.9425C357.07 35.2747 358.026 38.8118 359.939 41.554C361.851 44.2961 364.155 45.6672 366.852 45.6672C368.626 45.6672 370.343 44.9759 372.002 43.5933C373.638 42.2337 374.594 40.5746 374.871 38.6159C374.986 37.9477 375.239 37.6136 375.631 37.6136C376.046 37.6136 376.253 37.8209 376.253 38.2357C376.253 40.494 375.205 42.614 373.108 44.5957C371.034 46.5774 368.246 47.5683 364.743 47.5683C360.918 47.5683 357.703 46.1165 355.099 43.2131C352.496 40.3096 351.194 36.9453 351.194 33.1201ZM391.978 18.0152C392.093 19.513 392.196 23.8452 392.289 31.0116C392.335 35.482 392.45 38.4662 392.634 39.964C392.819 41.4388 393.395 42.66 394.363 43.6279C395.353 44.5957 396.483 45.0796 397.75 45.0796C399.409 45.0796 401.068 44.3076 402.727 42.7637C404.409 41.2198 405.446 39.5722 405.838 37.8209C406.23 36.0466 406.426 31.991 406.426 25.6541C406.426 22.7045 406.241 20.9187 405.873 20.2965C405.504 19.6743 404.605 19.3171 403.177 19.225C402.647 19.2019 402.382 19.0061 402.382 18.6374C402.382 18.3839 402.462 18.2226 402.624 18.1535C402.785 18.0613 403.303 18.0152 404.179 18.0152H411.092C411.299 20.5269 411.403 23.3382 411.403 26.4491L411.127 39.4455C411.127 42.1185 411.345 43.8007 411.783 44.492C412.244 45.1833 412.959 45.575 413.926 45.6672C414.525 45.7594 414.825 45.9898 414.825 46.3585C414.825 46.7733 414.237 46.9807 413.062 46.9807H407.601C406.656 46.9807 406.184 46.6696 406.184 46.0474C406.184 45.8631 406.195 45.6557 406.218 45.4252C406.287 44.7339 406.322 44.0311 406.322 43.3168C406.322 42.7177 406.287 41.842 406.218 40.6898C404.467 42.9481 402.647 44.6418 400.757 45.7709C398.868 46.9 396.897 47.4646 394.846 47.4646C393.095 47.4646 391.62 47.0383 390.422 46.1857C389.247 45.3331 388.463 44.3076 388.072 43.1094C387.703 41.8881 387.45 38.8694 387.311 34.0534C387.173 29.2373 387.104 25.4582 387.104 22.716C387.104 21.2182 387.023 20.285 386.862 19.9163C386.701 19.5476 386.194 19.3402 385.341 19.2941C384.419 19.225 383.958 18.9945 383.958 18.6028C383.958 18.2111 384.512 18.0152 385.618 18.0152H391.978ZM395.434 12.9341L400.757 5.4681C401.794 4.01637 402.624 3.0255 403.246 2.49551C403.891 1.96551 404.617 1.70051 405.423 1.70051C406.898 1.70051 407.635 2.42638 407.635 3.87811C407.635 5.05332 406.506 6.49353 404.248 8.19873L396.091 14.4204C395.538 14.8352 395.158 15.0426 394.95 15.0426C394.628 15.0426 394.466 14.8928 394.466 14.5933C394.466 14.3859 394.789 13.8328 395.434 12.9341ZM444.859 37.8901C444.859 40.5631 443.868 42.8674 441.887 44.8031C439.905 46.7157 437.555 47.672 434.835 47.672C433.222 47.672 431.298 47.1535 429.063 46.1165C427.842 45.5635 427.116 45.287 426.885 45.287C426.494 45.287 426.148 45.5289 425.848 46.0129C425.48 46.6581 425.134 46.9807 424.812 46.9807C424.535 46.9807 424.362 46.6581 424.293 46.0129C424.224 45.3446 424.178 43.8468 424.155 41.5194C424.132 39.5146 424.097 38.2242 424.051 37.6481C424.051 36.7955 424.27 36.3692 424.708 36.3692C424.961 36.3692 425.157 36.5881 425.295 37.026C426.194 39.6529 427.45 41.8881 429.063 43.7316C430.699 45.552 432.612 46.4622 434.801 46.4622C436.345 46.4622 437.716 45.9898 438.914 45.045C440.112 44.0772 440.711 42.7753 440.711 41.1392C440.711 38.6044 438.511 36.3577 434.11 34.399C431.091 33.0395 429.075 32.0486 428.061 31.4264C427.047 30.8043 426.252 29.9632 425.676 28.9032C425.1 27.8432 424.812 26.691 424.812 25.4467C424.812 23.0732 425.71 21.0915 427.508 19.5015C429.305 17.8885 431.483 17.0819 434.04 17.0819C435.93 17.0819 438.004 17.6695 440.262 18.8448C440.631 19.0291 440.953 19.1213 441.23 19.1213C441.46 19.1213 441.714 18.9369 441.99 18.5682C442.267 18.2226 442.486 18.0498 442.647 18.0498C442.854 18.0498 443.016 18.1419 443.131 18.3263C443.246 18.4876 443.373 19.5015 443.511 21.368C443.649 23.2115 443.719 24.7323 443.719 25.9306C443.719 26.668 443.523 27.0367 443.131 27.0367C442.785 27.0367 442.509 26.7025 442.301 26.0343C442.117 25.4121 441.564 24.2254 440.642 22.4741C439.721 20.7228 438.707 19.6052 437.601 19.1213C436.518 18.6374 435.446 18.3954 434.386 18.3954C432.727 18.3954 431.367 18.7987 430.307 19.6052C429.247 20.4117 428.717 21.4602 428.717 22.7506C428.717 23.5571 428.936 24.283 429.374 24.9282C429.812 25.5734 430.215 26.0573 430.584 26.3799C430.976 26.7025 433.176 27.7625 437.186 29.5599C439.674 30.689 441.311 31.5647 442.094 32.1869C442.878 32.786 443.534 33.604 444.064 34.641C444.594 35.6779 444.859 36.761 444.859 37.8901ZM464.386 20.5384C464.063 25.631 463.902 30.6314 463.902 35.5397C463.902 39.3188 464.351 41.7844 465.25 42.9366C466.149 44.0887 467.439 44.6648 469.121 44.6648C470.342 44.6648 471.69 44.2155 473.165 43.3168C473.695 42.9942 474.018 42.8329 474.133 42.8329C474.433 42.8329 474.582 42.9942 474.582 43.3168C474.582 43.8698 473.764 44.7455 472.128 45.9437C470.492 47.142 468.487 47.7411 466.114 47.7411C463.764 47.7411 462.001 46.9231 460.826 45.287C459.65 43.6509 459.063 41.2083 459.063 37.9592C459.063 34.5718 459.27 28.7649 459.685 20.5384C459.524 20.4924 458.429 20.4117 456.401 20.2965L454.327 20.1582C453.82 20.1352 453.567 19.9624 453.567 19.6398C453.567 19.3402 453.855 19.0982 454.431 18.9139C455.376 18.5682 456.966 17.5543 459.201 15.8722C461.436 14.19 462.738 11.8165 463.107 8.75177C463.199 7.94526 463.452 7.542 463.867 7.542C464.282 7.542 464.489 7.86461 464.489 8.50982C464.489 8.71721 464.478 8.93612 464.455 9.16655C464.386 10.0652 464.351 11.1022 464.351 12.2774L464.386 17.6695L471.955 17.5659C473.246 17.5659 473.914 17.7156 473.96 18.0152C473.937 19.0752 473.764 19.7434 473.442 20.02C472.243 20.02 469.225 20.1928 464.386 20.5384ZM486.574 0.456172C487.449 0.456172 488.233 0.778779 488.924 1.42399C489.615 2.06921 489.961 2.77203 489.961 3.53246C489.961 4.43115 489.673 5.2031 489.097 5.84831C488.544 6.49353 487.772 6.81613 486.781 6.81613C485.905 6.81613 485.122 6.53961 484.431 5.98657C483.739 5.41049 483.394 4.63854 483.394 3.67072C483.394 2.72594 483.682 1.95399 484.258 1.35486C484.857 0.755736 485.629 0.456172 486.574 0.456172ZM490.41 17.3585L490.376 25.1356L490.445 32.3942V37.8555L490.41 42.0033C490.41 43.6624 490.675 44.7224 491.205 45.1833C491.758 45.6211 492.576 45.8631 493.66 45.9092C494.927 45.9783 495.561 46.2433 495.561 46.7042C495.561 47.0728 495.319 47.2572 494.835 47.2572C494.65 47.2572 494.443 47.2457 494.213 47.2226C492.07 46.9461 490.076 46.8078 488.233 46.8078C485.283 46.8078 483.244 46.9 482.115 47.0844C481.884 47.1305 481.654 47.1535 481.424 47.1535C480.87 47.1535 480.594 46.9461 480.594 46.5313C480.594 46.1165 481.239 45.8285 482.53 45.6672C483.82 45.5059 484.638 45.2294 484.984 44.8376C485.352 44.4229 485.537 43.2707 485.537 41.3811L485.744 27.0712C485.744 23.246 485.456 20.9878 484.88 20.2965C484.304 19.5821 483.186 19.2019 481.527 19.1558C480.974 19.1558 480.698 18.9715 480.698 18.6028C480.698 18.3954 480.79 18.2341 480.974 18.1189C481.159 18.0037 482.53 17.8539 485.087 17.6695C487.645 17.4852 489.42 17.3815 490.41 17.3585ZM501.883 33.1201C501.883 28.9032 503.231 25.2162 505.927 22.0593C508.646 18.9024 511.953 17.3239 515.847 17.3239C518.359 17.3239 520.767 17.9461 523.072 19.1904C525.376 20.4117 526.528 21.9441 526.528 23.7876C526.528 24.5019 526.309 25.1356 525.871 25.6886C525.434 26.2186 524.927 26.4836 524.35 26.4836C523.06 26.4836 522.069 25.4467 521.378 23.3728C520.318 20.1928 518.463 18.6028 515.813 18.6028C513.186 18.6028 511.181 19.7434 509.799 22.0247C508.439 24.283 507.759 27.2556 507.759 30.9425C507.759 35.2747 508.716 38.8118 510.628 41.554C512.541 44.2961 514.845 45.6672 517.541 45.6672C519.316 45.6672 521.032 44.9759 522.691 43.5933C524.327 42.2337 525.284 40.5746 525.56 38.6159C525.675 37.9477 525.929 37.6136 526.321 37.6136C526.735 37.6136 526.943 37.8209 526.943 38.2357C526.943 40.494 525.894 42.614 523.797 44.5957C521.724 46.5774 518.935 47.5683 515.433 47.5683C511.608 47.5683 508.393 46.1165 505.789 43.2131C503.185 40.3096 501.883 36.9453 501.883 33.1201ZM534.337 32.6016C534.337 28.546 535.8 24.9743 538.727 21.8865C541.653 18.7987 545.248 17.2548 549.511 17.2548C553.521 17.2548 556.966 18.6374 559.846 21.4026C562.749 24.1678 564.201 27.6243 564.201 31.7721C564.201 35.966 562.68 39.6529 559.639 42.8329C556.597 45.9898 553.048 47.5683 548.993 47.5683C544.983 47.5683 541.538 46.1165 538.658 43.2131C535.777 40.2866 534.337 36.7494 534.337 32.6016ZM539.937 32.3942C539.937 36.3577 540.847 39.6529 542.667 42.2798C544.511 44.9068 546.78 46.2202 549.476 46.2202C551.942 46.2202 554.108 44.9874 555.975 42.5218C557.864 40.0562 558.809 36.784 558.809 32.7053C558.809 29.0645 557.899 25.8269 556.078 22.9926C554.281 20.1352 551.942 18.7065 549.062 18.7065C546.389 18.7065 544.2 20.0084 542.494 22.6123C540.789 25.1932 539.937 28.4538 539.937 32.3942Z" fill="white"/>
</g>
<defs>
<filter id="filter0_d" x="0.663086" y="0.456177" width="571.083" height="52.8063" filterUnits="userSpaceOnUse" color-interpolation-filters="sRGB">
<feFlood flood-opacity="0" result="BackgroundImageFix"/>
<feColorMatrix in="SourceAlpha" type="matrix" values="0 0 0 0 0 0 0 0 0 0 0 0 0 0 0 0 0 0 127 0" result="hardAlpha"/>
<feOffset dx="4.80098" dy="2.74342"/>
<feGaussianBlur stdDeviation="1.37171"/>
<feColorMatrix type="matrix" values="0 0 0 0 0 0 0 0 0 0 0 0 0 0 0 0 0 0 0.25 0"/>
<feBlend mode="normal" in2="BackgroundImageFix" result="effect1_dropShadow"/>
<feBlend mode="normal" in="SourceGraphic" in2="effect1_dropShadow" result="shape"/>
</filter>
</defs>
</svg>
