<svg width="224" height="75" viewBox="0 0 224 75" fill="none" xmlns="http://www.w3.org/2000/svg">
<g filter="url(#filter0_d)">
<path d="M13.83 55.0409C7.93089 55.0409 3.35319 52.6104 0.0968928 47.7496V43.927C1.3711 46.7585 3.21162 48.9766 5.61845 50.5811C8.07247 52.1857 10.9984 52.988 14.3963 52.988C16.7559 52.988 18.9268 52.4688 20.9089 51.4306C22.9382 50.3924 24.5427 48.9294 25.7226 47.0417C26.9024 45.154 27.4923 42.9831 27.4923 40.5291C27.4923 38.311 27.1147 36.3997 26.3597 34.7952C25.6046 33.1906 24.354 31.6568 22.6078 30.1939C20.8617 28.6837 18.3369 26.914 15.0334 24.8847L12.7681 23.4689C10.6917 22.1947 9.01632 21.0621 7.74212 20.071C6.46792 19.08 5.35889 17.9237 4.41503 16.6023C3.18802 14.7618 2.57451 12.6382 2.57451 10.2313C2.57451 7.02222 3.61275 4.521 5.68924 2.72768C7.76572 0.934353 10.4085 0.037691 13.6176 0.037691C17.9594 0.037691 21.4044 1.64224 23.9528 4.85135V8.4616C22.8674 6.4795 21.3808 4.92214 19.4931 3.78951C17.6054 2.65689 15.5289 2.09057 13.2637 2.09057C10.904 2.09057 8.92194 2.82206 7.31739 4.28504C5.71283 5.74801 4.91055 7.70651 4.91055 10.1605C4.91055 12.5674 5.64204 14.6439 7.10502 16.39C8.61519 18.0889 11.14 19.953 14.6795 21.9823C19.0212 24.5307 22.3955 26.8432 24.8023 28.9197C26.5012 30.477 27.7283 32.1996 28.4833 34.0873C29.2856 35.975 29.6868 38.0751 29.6868 40.3875C29.6868 43.3135 29.0025 45.8855 27.6339 48.1035C26.2653 50.3216 24.3776 52.0441 21.9707 53.2711C19.5639 54.4509 16.8503 55.0409 13.83 55.0409ZM42.0173 14.9034C41.3566 14.9034 40.7667 14.6674 40.2476 14.1955C39.7757 13.7236 39.5397 13.1337 39.5397 12.4258C39.5397 11.7651 39.7757 11.1988 40.2476 10.7268C40.7667 10.2549 41.3566 10.019 42.0173 10.019C42.678 10.019 43.2443 10.2549 43.7163 10.7268C44.2354 11.1988 44.495 11.7651 44.495 12.4258C44.495 13.1337 44.2354 13.7236 43.7163 14.1955C43.2443 14.6674 42.678 14.9034 42.0173 14.9034ZM40.8847 22.1947H43.15V54.0498H40.8847V22.1947ZM56.5363 22.1947H58.8016V29.2736C59.8398 26.914 61.6095 25.0263 64.1107 23.6105C66.612 22.1475 69.3727 21.416 72.3931 21.416C76.3101 21.416 79.4012 22.6666 81.6664 25.1678C83.9789 27.6219 85.1351 31.0669 85.1351 35.503V54.0498H82.8699V35.503C82.8699 31.6804 81.926 28.7073 80.0383 26.5836C78.1978 24.4599 75.6022 23.3981 72.2515 23.3981C69.7975 23.3981 67.5322 23.9644 65.4557 25.097C63.4264 26.1825 61.7983 27.6926 60.5713 29.6275C59.3915 31.5625 58.8016 33.7569 58.8016 36.2109V54.0498H56.5363V22.1947ZM112.267 68.7739C109.577 68.7739 106.958 68.1604 104.409 66.9334C101.861 65.7064 99.8786 64.1019 98.4628 62.1198V58.8635C99.6898 61.1287 101.601 63.0164 104.197 64.5266C106.84 66.0368 109.53 66.7919 112.267 66.7919C116.797 66.7919 120.289 65.4469 122.743 62.7569C125.198 60.1141 126.425 56.2207 126.425 51.0767V46.3338C125.15 48.8822 123.145 50.9587 120.407 52.5632C117.717 54.1206 114.886 54.8993 111.913 54.8993C108.892 54.8993 106.084 54.1442 103.489 52.634C100.893 51.1239 98.8404 49.0946 97.3302 46.5462C95.82 43.9506 95.0649 41.1662 95.0649 38.193C95.0649 35.2199 95.82 32.4591 97.3302 29.9107C98.8404 27.3151 100.893 25.2622 103.489 23.7521C106.084 22.2419 108.892 21.4868 111.913 21.4868C115.027 21.4868 117.906 22.2655 120.549 23.8228C123.192 25.3802 125.15 27.4803 126.425 30.1231V22.1947H128.69V51.0767C128.69 56.8814 127.274 61.2703 124.442 64.2434C121.658 67.2638 117.599 68.7739 112.267 68.7739ZM112.054 52.9172C114.65 52.9172 117.057 52.2565 119.275 50.9351C121.493 49.5665 123.239 47.7732 124.513 45.5551C125.835 43.2899 126.495 40.8358 126.495 38.193C126.495 35.5502 125.835 33.1198 124.513 30.9018C123.239 28.6365 121.493 26.8432 119.275 25.5218C117.057 24.1532 114.65 23.4689 112.054 23.4689C109.412 23.4689 106.958 24.1532 104.692 25.5218C102.474 26.8432 100.681 28.6365 99.3123 30.9018C97.9909 33.1198 97.3302 35.5502 97.3302 38.193C97.3302 40.8358 97.9909 43.2899 99.3123 45.5551C100.681 47.7732 102.474 49.5665 104.692 50.9351C106.958 52.2565 109.412 52.9172 112.054 52.9172ZM152.56 54.6869C150.342 54.6869 148.312 54.1914 146.472 53.2003C144.631 52.1621 143.168 50.7227 142.083 48.8822C140.997 47.0417 140.455 44.9888 140.455 42.7235V0.957946H142.72V42.7235C142.72 44.6113 143.145 46.3102 143.994 47.8204C144.891 49.3305 146.094 50.5339 147.604 51.4306C149.114 52.2801 150.766 52.7048 152.56 52.7048V54.6869ZM176.071 52.9172C178.526 52.9172 180.862 52.2801 183.08 51.0059C185.298 49.7317 187.138 47.9855 188.601 45.7675V49.3777C186.855 51.3126 184.944 52.7284 182.867 53.6251C180.791 54.4745 178.431 54.8993 175.788 54.8993C172.862 54.8993 170.102 54.1206 167.506 52.5632C164.958 51.0059 162.905 48.9294 161.347 46.3338C159.837 43.7382 159.082 40.9774 159.082 38.0515C159.082 34.8895 159.837 32.058 161.347 29.5568C162.858 27.0084 164.91 25.0263 167.506 23.6105C170.149 22.1947 173.075 21.4868 176.284 21.4868C181.192 21.4868 185.368 23.4217 188.814 27.2915L166.586 49.2361C168.143 50.5103 169.653 51.4542 171.116 52.0677C172.579 52.634 174.231 52.9172 176.071 52.9172ZM161.347 37.8391C161.347 41.7561 162.645 45.1068 165.241 47.8911L185.982 27.2915C184.425 25.9229 182.914 24.9555 181.451 24.3892C179.988 23.7756 178.242 23.4689 176.213 23.4689C173.334 23.4689 170.762 24.106 168.497 25.3802C166.279 26.6072 164.533 28.3062 163.259 30.477C161.984 32.6479 161.347 35.1019 161.347 37.8391ZM206.442 54.8285C204.176 54.8285 202.171 54.4509 200.425 53.6959C198.679 52.8936 197.428 51.8789 196.673 50.6519V46.9001C197.569 48.9294 198.796 50.4396 200.354 51.4306C201.911 52.3745 203.893 52.8464 206.3 52.8464C208.613 52.8464 210.477 52.1385 211.892 50.7227C213.308 49.2597 214.016 47.3956 214.016 45.1304C214.016 43.1955 213.615 41.7089 212.813 40.6707C212.01 39.5852 210.713 38.4998 208.919 37.4144L206.229 35.857C204.294 34.6772 202.831 33.7569 201.84 33.0962C200.897 32.3883 200.141 31.6096 199.575 30.7602C199.009 29.8635 198.726 28.8253 198.726 27.6455C198.726 25.7577 199.386 24.2476 200.708 23.115C202.029 21.9823 203.752 21.416 205.875 21.416C208.471 21.416 210.642 22.0059 212.388 23.1857V26.3005C210.925 24.3656 208.825 23.3981 206.088 23.3981C204.578 23.3981 203.351 23.7756 202.407 24.5307C201.463 25.2858 200.991 26.2533 200.991 27.4331C200.991 28.4713 201.274 29.3916 201.84 30.1939C202.407 30.9489 203.185 31.6568 204.176 32.3175C205.215 32.9782 206.914 33.9693 209.273 35.2907C211.68 36.6593 213.45 38.0751 214.582 39.538C215.715 40.9538 216.281 42.8179 216.281 45.1304C216.281 48.0563 215.314 50.416 213.379 52.2093C211.491 53.9554 209.179 54.8285 206.442 54.8285Z" fill="white"/>
</g>
<defs>
<filter id="filter0_d" x="0.0966797" y="0.0376892" width="223.729" height="74.2231" filterUnits="userSpaceOnUse" color-interpolation-filters="sRGB">
<feFlood flood-opacity="0" result="BackgroundImageFix"/>
<feColorMatrix in="SourceAlpha" type="matrix" values="0 0 0 0 0 0 0 0 0 0 0 0 0 0 0 0 0 0 127 0" result="hardAlpha"/>
<feOffset dx="4.80098" dy="2.74342"/>
<feGaussianBlur stdDeviation="1.37171"/>
<feColorMatrix type="matrix" values="0 0 0 0 0 0 0 0 0 0 0 0 0 0 0 0 0 0 0.25 0"/>
<feBlend mode="normal" in2="BackgroundImageFix" result="effect1_dropShadow"/>
<feBlend mode="normal" in="SourceGraphic" in2="effect1_dropShadow" result="shape"/>
</filter>
</defs>
</svg>
